<svg xmlns="http://www.w3.org/2000/svg" width="48" height="48" viewBox="0 0 48 48" role="img" aria-labelledby="title desc" fill="none" stroke="#0f766e" stroke-width="3.2" stroke-linecap="round" stroke-linejoin="round">
  <title id="title">Komponente</title>
  <desc id="desc">Komponente</desc>
  <polygon points="18,11.299999999999999 24.6,15.149999999999999 18,19 11.399999999999999,15.149999999999999" fill="none"/>
<polygon points="11.399999999999999,15.149999999999999 18,19 18,26.700000000000003 11.399999999999999,22.85" fill="none"/>
<polygon points="24.6,15.149999999999999 18,19 18,26.700000000000003 24.6,22.85" fill="none"/>
<polygon points="18,11.299999999999999 24.6,15.149999999999999 24.6,22.85 18,26.700000000000003 11.399999999999999,22.85 11.399999999999999,15.149999999999999" fill="none"/>
  <polygon points="31,18.299999999999997 37.6,22.15 31,26 24.4,22.15" fill="#0f766e" opacity="0.28"/>
<polygon points="24.4,22.15 31,26 31,33.7 24.4,29.85" fill="#0f766e" opacity="0.28"/>
<polygon points="37.6,22.15 31,26 31,33.7 37.6,29.85" fill="#0f766e" opacity="0.28"/>
<polygon points="31,18.299999999999997 37.6,22.15 37.6,29.85 31,33.7 24.4,29.85 24.4,22.15" fill="none"/>
  <line x1="22" y1="23" x2="27" y2="25" stroke-dasharray="2 3"/>
  <circle cx="38" cy="11" r="4" fill="#0f766e" opacity="0.22"/>
  <line x1="35.5" y1="11" x2="40.5" y2="11" /><line x1="38" y1="8.5" x2="38" y2="13.5" />
</svg>
