<svg xmlns="http://www.w3.org/2000/svg" width="48" height="48" viewBox="0 0 48 48" role="img" aria-labelledby="title desc" fill="none" stroke="currentColor" stroke-width="3.2" stroke-linecap="round" stroke-linejoin="round">
  <title id="title">Maßband</title>
  <desc id="desc">Maßband mit ausgezogenem Band</desc>
  <path d="M13 30 L13 16 Q13 10 21 10 H27 Q35 10 35 18 V30 Q35 38 24 38 H21 Q13 38 13 30 Z" fill="currentColor" opacity="0.16"/>
  <path d="M13 30 L13 16 Q13 10 21 10 H27 Q35 10 35 18 V30 Q35 38 24 38 H21 Q13 38 13 30 Z" />
  <circle cx="24" cy="24" r="7" />
  <path d="M31 25 L42 25" />
  <line x1="37" y1="21" x2="37" y2="29" />
  <line x1="42" y1="22" x2="42" y2="28" />
</svg>
